<?xml version="1.0" encoding="UTF-8" standalone="no"?>
<!-- Created with Inkscape (http://www.inkscape.org/) -->

<svg
   width="400"
   height="100"
   id="svg3034"
   version="1.1"
   inkscape:version="1.3.2 (091e20e, 2023-11-25, custom)"
   sodipodi:docname="header-logo.svg"
   xml:space="preserve"
   inkscape:export-filename="header-logo.png"
   inkscape:export-xdpi="66.998665"
   inkscape:export-ydpi="66.998665"
   xmlns:inkscape="http://www.inkscape.org/namespaces/inkscape"
   xmlns:sodipodi="http://sodipodi.sourceforge.net/DTD/sodipodi-0.dtd"
   xmlns="http://www.w3.org/2000/svg"
   xmlns:svg="http://www.w3.org/2000/svg"
   xmlns:rdf="http://www.w3.org/1999/02/22-rdf-syntax-ns#"
   xmlns:cc="http://creativecommons.org/ns#"
   xmlns:dc="http://purl.org/dc/elements/1.1/"><defs
     id="defs3036" /><sodipodi:namedview
     id="base"
     pagecolor="#ffffff"
     bordercolor="#666666"
     borderopacity="1.0"
     inkscape:pageopacity="0.0"
     inkscape:pageshadow="2"
     inkscape:zoom="1.979899"
     inkscape:cx="160.36172"
     inkscape:cy="107.32871"
     inkscape:document-units="px"
     inkscape:current-layer="layer1"
     showgrid="false"
     inkscape:window-width="1920"
     inkscape:window-height="1009"
     inkscape:window-x="-8"
     inkscape:window-y="-8"
     inkscape:window-maximized="1"
     inkscape:showpageshadow="2"
     inkscape:pagecheckerboard="0"
     inkscape:deskcolor="#d1d1d1" /><metadata
     id="metadata3039"><rdf:RDF><cc:Work
         rdf:about=""><dc:format>image/svg+xml</dc:format><dc:type
           rdf:resource="http://purl.org/dc/dcmitype/StillImage" /><dc:title /></cc:Work></rdf:RDF></metadata><g
     inkscape:label="Capa 1"
     inkscape:groupmode="layer"
     id="layer1"
     transform="translate(0,-952.36218)"><g
       transform="matrix(5.4311156,0,0,5.4311156,15.962887,-563.41005)"
       id="g1073"><path
         style="fill:#2e75a3;stroke-width:0.576278"
         d="m 50.214844,23.845703 c -0.238162,-0.0039 -0.460136,0.04199 -0.66211,0.144531 -1.61636,0.820309 -0.200033,3.129037 -0.111328,3.820313 0.134589,0.737046 0.817868,1.938672 0.587891,1.9375 -0.275868,-0.04762 -3.743873,-6.64903 -12.503906,-4.851563 -2.259694,0.4944 -4.199128,1.452691 -5.771485,2.6875 -0.693087,0.503509 -1.293812,1.097555 -1.849609,1.69336 -3.24162,3.390425 -4.690697,7.481323 -5.017578,8.40039 -0.5139,1.424542 -3.809444,6.564297 -4.101563,9.601563 -0.246244,3.083565 -0.344118,10.688233 6.666016,11.634765 2.847138,0.38443 5.350089,-1.00372 6.455306,-3.496187 0.859348,-1.99351 0.614487,-4.229831 -0.480697,-5.292874 -0.917093,-0.890178 -2.397351,-1.305309 -3.621093,-1.142528 -1.298386,0.17271 -2.533736,0.767116 -3.144302,3.065258 -0.516945,2.023181 1.634631,3.785461 3.109145,3.655445 v 0.002 c 0.09222,4.91e-4 0.229811,8.48e-4 0.322266,-0.04492 0,0 -0.09283,0.09159 -0.322266,0.181641 h -0.002 c -0.646611,0.180515 -2.074226,0.35591 -3.675781,-1.492188 -2.152255,-2.497133 -1.072723,-6.543064 0.638672,-7.916015 1.110187,-0.915099 2.172065,-1.416199 3.095703,-1.917969 0.461934,-0.273638 0.877289,-0.547788 1.248047,-0.914063 0.231723,-0.228658 0.418137,-0.457736 0.603515,-0.640624 v -0.002 c 0.552654,-0.54704 0.785157,-0.824218 0.785157,-0.824218 0,0 0.586365,2.76668 1.685547,4.015625 1.099181,1.248415 2.430503,1.991446 2.849609,1.072265 0.418868,-0.872504 -0.851563,-4.654297 -0.851563,-4.654297 0,0 2.382042,2.31505 3.070313,2.871094 0.688278,0.555477 2.021854,1.253445 2.396484,0.01172 0.328517,-1.241121 -0.629064,-3.134878 -1.410156,-3.460938 -0.734978,-0.326551 -1.197266,-0.328125 -1.197266,-0.328125 0,0 -0.457886,-0.601572 -0.6875,-0.787109 C 38.043163,40.68948 37.998,40.689508 37.998,40.689508 c 0,0 0.415363,-0.228317 1.705078,-0.175781 1.335247,0.05291 2.394531,0.105469 2.394531,0.105469 0,0 1.188065,1.754276 1.921875,2.310547 0.688041,0.602151 2.477207,2.039267 3.119141,2.640624 0.59582,0.601663 0.96218,0.878975 1.195312,0.373047 0.187011,-0.505511 -0.127238,-1.841501 -0.951172,-2.8125 -0.870267,-0.925152 -1.788945,-1.436465 -2.109374,-1.898437 -0.273298,-0.553965 -0.457032,-0.96875 -0.457032,-0.96875 0,0 1.69902,1.251011 2.111328,1.667969 0.458661,0.370393 3.489139,2.273032 3.994141,2.597656 0.504767,0.371527 0.736328,0.142578 0.736328,0.142578 0,0 0.366606,0.278632 0.505859,0.0957 0.139276,-0.183685 0.51421,-1.424737 -0.449218,-2.166016 -1.0093,-0.788141 -1.606361,-1.160223 -1.513672,-1.251953 0.04656,-0.09146 1.058103,0.236843 1.197266,-0.03906 0.09339,-0.229417 -0.0438,-0.598506 -0.181641,-0.691406 -0.0915,-0.139465 0.279297,-0.414063 0.279297,-0.414063 0,0 0.369457,0.0025 1.888672,0.148438 1.519222,0.145889 5.104958,-0.902148 5.867187,-1.232422 1.198364,-0.519252 1.924472,-1.015769 2.070359,-1.902344 0.119791,-0.727982 -0.775219,-1.617278 -1.59961,-2.496094 -0.962256,-0.971716 -1.789062,-1.435547 -1.789062,-1.435547 0,0 -0.403724,-1.936418 -2.140625,-4.615234 -1.478933,-2.344261 -3.910996,-4.798734 -5.578125,-4.826172 z M 31.128906,51.152344 c 0.439616,0.150274 0.798743,0.302813 1,0.685499 0.313826,0.596733 0.002,1.392579 0.002,1.392579 0,0 0.0057,-0.869839 -0.248047,-1.259766 -0.175183,-0.26916 -0.412722,-0.568848 -0.753906,-0.818359 z m -0.984374,2.091797 c -0.170306,0.348444 -0.865314,0.151017 -0.683594,-0.304735 0.195384,-0.490023 0.960172,-0.261139 0.683594,0.304735 z"
         transform="matrix(0.26458333,0,0,0.26458333,0,280.06665)"
         id="path1061"
         inkscape:connector-curvature="0"
         sodipodi:nodetypes="cccccccccscssccccccccccccccccccccccccccccccccccccccccssccccccscsccsss" /><path
         d="m 10.317809,280.94756 0.774991,-0.025 c 0.415997,-0.0135 0.985598,0.28142 0.950222,0.81386 l -0.219962,3.31095 c -0.02754,0.41516 -0.207746,0.63396 -0.536923,0.63235 l -1.021478,-0.005 c -0.4162091,-0.002 -0.5899281,-0.26651 -0.6172759,-0.68166 L 9.4318975,281.7231 c -0.027231,-0.41526 0.2955222,-0.75644 0.8859115,-0.77554 z"
         inkscape:connector-curvature="0"
         sodipodi:nodetypes="sssssssss"
         id="path2950"
         style="fill:#ffcc00;stroke-width:0.0583228" /><path
         d="m 4.1579762,283.22855 0.612943,-0.53581 c 0.3289779,-0.28756 0.9880136,-0.42682 1.3137088,0.0293 l 2.0250744,2.83628 c 0.2538984,0.35566 0.2531735,0.65323 -0.015382,0.8708 l -0.8333269,0.67518 c -0.3396002,0.27504 -0.65668,0.17581 -0.9551687,-0.14334 l -2.3513684,-2.51321 c -0.2985838,-0.31907 -0.2634734,-0.81104 0.2035201,-1.21916 z"
         inkscape:connector-curvature="0"
         sodipodi:nodetypes="sssssssss"
         id="path2954"
         style="fill:#ff6600;stroke-width:0.061246" /><path
         d="m 1.2192329,289.09689 0.1343157,-0.75665 c 0.072066,-0.40607 0.4747307,-0.8981 0.9842348,-0.75482 l 3.1680289,0.89085 c 0.3971799,0.11167 0.5726305,0.33118 0.5036965,0.65003 l -0.2140992,0.98947 c -0.087232,0.40314 -0.3793308,0.51736 -0.7878013,0.45897 l -3.2170544,-0.46028 c -0.4084583,-0.0584 -0.6735873,-0.44131 -0.571321,-1.01757 z"
         inkscape:connector-curvature="0"
         sodipodi:nodetypes="sssssssss"
         id="path2958"
         style="fill:#aad400;stroke-width:0.0578201" /><path
         d="m 1.6781799,294.5985 -0.2990493,-0.52803 c -0.160512,-0.2835 -0.1630136,-0.78545 0.2191421,-0.95439 l 2.3765168,-1.05104 c 0.2979792,-0.1317 0.5152218,-0.0865 0.633725,0.14232 l 0.3676666,0.70986 c 0.1497877,0.2892 0.029576,0.50567 -0.2484623,0.67548 l -2.1896312,1.33779 c -0.278079,0.16983 -0.6320775,0.0702 -0.8599077,-0.33199 z"
         inkscape:connector-curvature="0"
         sodipodi:nodetypes="sssssssss"
         id="path2962"
         style="fill:#ff2a2a;stroke-width:0.0456577" /></g><text
       xml:space="preserve"
       style="font-size:46.9171px;font-family:'Agency FB';-inkscape-font-specification:'Agency FB';text-align:center;text-anchor:middle;fill:#2e75a3;fill-opacity:1;stroke-width:0.418484"
       x="236.95743"
       y="981.52954"
       id="text1"
       transform="scale(0.97651626,1.0240485)"><tspan
         sodipodi:role="line"
         id="tspan1"
         x="236.95743"
         y="981.52954"
         style="font-style:normal;font-variant:normal;font-weight:bold;font-stretch:normal;font-size:46.9171px;font-family:raleway;-inkscape-font-specification:'raleway Bold';stroke-width:0.418484">Apprendre</tspan></text><text
       xml:space="preserve"
       style="font-style:normal;font-variant:normal;font-weight:bold;font-stretch:normal;font-size:24px;font-family:raleway;-inkscape-font-specification:'raleway Bold';text-align:center;text-anchor:middle;fill:#2e75a3;stroke-width:0.333"
       x="306.5813"
       y="1031.6591"
       id="text2"><tspan
         sodipodi:role="line"
         id="tspan2"
         x="306.5813"
         y="1031.6591"
         style="font-style:normal;font-variant:normal;font-weight:normal;font-stretch:normal;font-size:24px;font-family:raleway;-inkscape-font-specification:raleway">avec Chamilo</tspan></text></g></svg>
